<svg xmlns="http://www.w3.org/2000/svg" viewBox="0 0 400 400"><defs><style>.cls-1{fill:#4a4d5b;}.cls-2,.cls-4{opacity:0.3;}.cls-3{fill:none;}.cls-5{fill:#fff;opacity:0.1;}</style></defs><title>logo</title><g id="logo-base"><circle class="cls-1" cx="138.07466" cy="258.28075" r="91.6965"/><path class="cls-1" d="M71.405,195.31458,54.85754,133.55865A48.10129,48.10129,0,1,1,147.782,108.65918l16.54761,61.75659a92.163,92.163,0,0,1,27.43878,13.53552l-21.76953-81.24462A71.10184,71.10184,0,0,0,32.64062,139.51111L54.41,220.756A92.16366,92.16366,0,0,1,71.405,195.31458Z"/><path class="cls-1" d="M298.76013,66.50708a32.36015,32.36015,0,0,0-13.88971-12.21454A47.23416,47.23416,0,0,0,264.24524,50H223.69287V178.74323l7.62036,7.62042,14.304-14.304v-3.91009l-2.26441-2.26435v-2.0943l2.41755-2.41754v-3.17242l-4.599-4.59906v-5.88629l5.10144-5.10144v-4.709l-1.56971-1.56964v-3.81818l3.13935-3.13934v-4.84937l-.01679-5.24755h.36609v.00842h15.63471q18.56578,0,29.21026-8.89923,10.64292-8.89911,10.64411-23.766C303.68085,79.92358,302.04059,71.7887,298.76013,66.50708Zm-23.66138,30.3075q-3.73452,3.55974-10.85351,3.55969H248.19177V68.9151h16.33264q6.63044.07022,10.46967,4.32745c2.55841,2.83869,3.83887,8.775,3.83887,13.52118Q278.833,93.25492,275.09875,96.81458Z"/><path class="cls-1" d="M375.07928,230.14343a32.36019,32.36019,0,0,0-13.8897-12.21454,47.23423,47.23423,0,0,0-20.62519-4.29254H300.012V342.37958L307.63239,350l14.304-14.304v-3.91009l-2.2644-2.26434v-2.0943l2.41754-2.41755v-3.17242l-4.599-4.59906v-5.88629l5.10144-5.10144v-4.709l-1.5697-1.56964v-3.81817l3.13934-3.13935v-4.84936l-.01678-5.24756h.36609v.00842h15.6347q18.5658,0,29.21027-8.89923,10.6429-8.89911,10.6441-23.766C380,243.55994,378.35974,235.42505,375.07928,230.14343Zm-23.66137,30.3075q-3.73453,3.55975-10.85352,3.55969H324.51093V232.55145h16.33264q6.63042.07023,10.46966,4.32746c2.55841,2.83868,3.83887,8.775,3.83887,13.52118Q355.1521,256.89126,351.41791,260.45093Z"/><path class="cls-1" d="M336.91971,148.32526A32.36014,32.36014,0,0,0,323.03,136.11072a47.234,47.234,0,0,0-20.62518-4.29254H261.85245V260.5614l7.62036,7.62042,14.304-14.304v-3.9101l-2.2644-2.26434v-2.0943l2.41754-2.41754V240.0191L279.331,235.42v-5.88629l5.10144-5.10144v-4.709l-1.5697-1.56964v-3.81818l3.13934-3.13934v-4.84937l-.01678-5.24756h.36609v.00842h15.6347q18.5658,0,29.21027-8.89923,10.64292-8.89911,10.6441-23.76605C341.84042,161.74176,340.20016,153.60687,336.91971,148.32526Zm-23.66138,30.30749q-3.73452,3.55976-10.85351,3.55969H286.35135V150.73328H302.684q6.63044.07021,10.46967,4.32745c2.55841,2.83868,3.83886,8.775,3.83886,13.52118Q316.99252,175.07309,313.25833,178.63275Z"/><path class="cls-2" d="M71.40488,195.31458,54.85746,133.55865a48.10129,48.10129,0,1,1,92.92444-24.89947l16.5476,61.75659a92.16312,92.16312,0,0,1,27.43879,13.53552l-21.76954-81.24462A71.10184,71.10184,0,0,0,32.64054,139.51111L54.41,220.756A92.16385,92.16385,0,0,1,71.40488,195.31458Z"/></g><g id="logo-dark"><path class="cls-2" d="M145.56,251.784a18.94766,18.94766,0,1,0-17.12306,4.63451,2.5682,2.5682,0,0,1,1.97925,2.608l-1.47887,39.63636a2.58782,2.58782,0,0,0,3.2558,2.59614l16.2321-4.34938,16.23219-4.3494a2.58783,2.58783,0,0,0,1.52154-3.87623l-21.09722-33.58377A2.62234,2.62234,0,0,1,145.56,251.784Z"/><path class="cls-2" d="M171.88234,199.72088l-2.43-1.40294-.03347.058C170.24784,198.80994,171.07207,199.25308,171.88234,199.72088Z"/><path class="cls-2" d="M101.86771,315.378l-.03347.058,2.43,1.40294C103.45394,316.37111,102.65806,315.87887,101.86771,315.378Z"/><path class="cls-2" d="M185.8822,210.47334a67.60995,67.60995,0,1,1-95.61491,95.6149l-.0169.0169,43.8049,43.8049a91.78285,91.78285,0,0,0,95.64-95.65819L185.89949,210.456Z"/><path id="SVGID" class="cls-3" d="M223.69286,119.28105v59.4622l7.06236,7.06237a.78917.78917,0,0,0,1.116,0l13.746-13.746v-3.9101l-2.26436-2.26436v-2.09426l2.41755-2.41755v-3.17245l-4.599-4.599v-5.88628l5.10145-5.10145v-4.709l-1.56968-1.56968v-3.81818l3.13935-3.13935v-4.84936h0l-.01681-5.23848"/><g class="cls-4"><path d="M228.68787,120.97913a.38617.38617,0,0,0-.74018.15429v61.86463l3.36554,3.3656v-59.281a.38566.38566,0,0,0-.03216-.1543Z"/><polygon points="247.842 129.378 247.842 124.529 247.826 119.281 236.945 119.29 236.945 180.732 245.617 172.06 245.617 168.15 243.353 165.885 243.353 163.791 245.77 161.373 245.77 158.201 241.171 153.602 241.171 147.716 246.273 142.614 246.273 137.905 244.703 136.335 244.703 132.517 247.842 129.378"/></g><path id="SVGID-2" data-name="SVGID" class="cls-3" d="M300.012,282.9174v59.4622l7.06236,7.06237a.78915.78915,0,0,0,1.116,0l13.746-13.746V331.7859l-2.26436-2.26436v-2.09425l2.41756-2.41756v-3.17245l-4.599-4.599V311.352l5.10144-5.10145v-4.709l-1.56967-1.56968v-3.81818l3.13935-3.13935v-4.84936h0l-.01681-5.23847"/><g class="cls-4"><path d="M305.007,284.61548a.38616.38616,0,0,0-.74017.1543V346.6344L307.63239,350V290.719a.38558.38558,0,0,0-.03217-.15429Z"/><polygon points="324.162 293.014 324.162 288.165 324.145 282.918 313.264 282.926 313.264 344.368 321.936 335.696 321.936 331.786 319.672 329.522 319.672 327.427 322.09 325.01 322.09 321.837 317.491 317.238 317.491 311.352 322.592 306.25 322.592 301.541 321.022 299.972 321.022 296.154 324.162 293.014"/></g><path id="SVGID-3" data-name="SVGID" class="cls-3" d="M261.85243,201.09923v59.4622l7.06237,7.06236a.78915.78915,0,0,0,1.116,0l13.746-13.746v-3.9101l-2.26436-2.26436v-2.09426l2.41755-2.41755v-3.17245l-4.599-4.59905v-5.88628l5.10144-5.10144v-4.709l-1.56967-1.56967v-3.81818l3.13935-3.13935v-4.84937h0l-.01681-5.23847"/><g class="cls-4"><path d="M266.84744,202.7973a.38616.38616,0,0,0-.74017.1543v61.86462l3.36554,3.3656v-59.281a.38567.38567,0,0,0-.03217-.1543Z"/><polygon points="286.002 211.196 286.002 206.347 285.985 201.099 275.105 201.108 275.105 262.55 283.777 253.878 283.777 249.968 281.512 247.703 281.512 245.609 283.93 243.192 283.93 240.019 279.331 235.42 279.331 229.534 284.432 224.432 284.432 219.723 282.863 218.154 282.863 214.335 286.002 211.196"/></g></g><g id="logo-light"><path class="cls-5" d="M120.57378,192.96662a67.61814,67.61814,0,1,0,82.815,47.81326A67.61811,67.61811,0,0,0,120.57378,192.96662ZM153.3355,315.235A58.96343,58.96343,0,1,1,195.029,243.01989,58.96342,58.96342,0,0,1,153.3355,315.235Z"/></g></svg>